<svg width="139" height="35" viewBox="0 0 139 35" fill="none" xmlns="http://www.w3.org/2000/svg">
<g clip-path="url(#clip0_193_25419)">
<path d="M12.8379 14.445C14.2557 14.2484 15.6726 14.0482 17.0885 13.8443C17.142 13.8363 17.1949 13.8252 17.247 13.8109C16.8856 13.4354 16.5576 13.0489 16.185 12.7151C15.7597 12.3313 15.212 12.3258 14.6811 12.3647C13.3161 12.4648 12.0651 12.9571 10.7891 13.4772C11.434 13.8053 12.0373 14.114 12.6433 14.4172C12.7048 14.4428 12.7717 14.4524 12.8379 14.445Z" fill="#F43253"/>
<path d="M24.1347 14.7398C22.212 14.4419 20.2568 14.4175 18.3273 14.6675C16.6204 14.8594 14.9218 15.1152 13.2177 15.346C13.1744 15.3535 13.1317 15.3638 13.0898 15.3766C13.0898 16.7811 13.0898 18.18 13.0703 19.59C13.1482 19.59 13.2177 19.6178 13.2872 19.6261L16.6232 20.0711C18.5257 20.3651 20.4503 20.4917 22.375 20.4493C25.0327 20.3437 27.4846 19.615 29.6558 18.0465C29.8671 17.8935 30.07 17.7267 30.2896 17.557L29.8949 17.2539C28.2176 15.9432 26.236 15.0783 24.1347 14.7398ZM23.5064 17.938C23.4234 18.2411 23.2429 18.5083 22.9929 18.6984C22.7428 18.8885 22.4371 18.9909 22.123 18.9898C21.8089 18.9886 21.5039 18.8839 21.2553 18.6919C21.0066 18.5 20.8281 18.2314 20.7474 17.9277C20.6667 17.6241 20.6882 17.3023 20.8086 17.0121C20.9291 16.7219 21.1417 16.4795 21.4137 16.3224C21.6857 16.1652 22.0019 16.1022 22.3133 16.1428C22.6248 16.1835 22.9142 16.3257 23.1367 16.5475C23.3152 16.7262 23.4434 16.9489 23.5084 17.193C23.5733 17.4372 23.5726 17.6942 23.5064 17.938Z" fill="#F43253"/>
<path d="M17.1951 21.1669C15.9831 20.9861 14.7654 20.8276 13.5617 20.6106C13.0874 20.5007 12.589 20.5795 12.1717 20.8303C11.7797 21.0667 11.3571 21.2503 10.8984 21.4783C11.3655 21.6647 11.7825 21.8454 12.2106 21.9984C13.0588 22.3391 13.9523 22.5537 14.8627 22.6353C15.4187 22.6659 15.9525 22.6353 16.3862 22.232C16.7309 21.9177 17.0617 21.5868 17.3981 21.2642L17.3592 21.1974L17.1951 21.1669Z" fill="#F43253"/>
<path d="M17.5298 2.14978C13.8905 2.15053 10.3699 3.44491 7.59628 5.80193C4.82264 8.15895 2.97643 11.4252 2.38713 15.0179H10.3852V16.1303H2.24813C2.22589 16.4084 2.20365 16.7088 2.19531 17.0119H10.3852V18.1244H2.19809C2.19809 18.4275 2.23145 18.7278 2.25925 19.0254H10.3852V20.1379H2.40659C2.90844 23.0177 4.22178 25.6944 6.19219 27.8531C8.16261 30.0118 10.7082 31.5628 13.5296 32.3237C16.351 33.0847 19.3309 33.024 22.119 32.1487C24.907 31.2734 27.3874 29.6199 29.2682 27.3827C31.1491 25.1455 32.3524 22.4176 32.7366 19.5197C33.1208 16.6218 32.6699 13.6744 31.4369 11.0241C30.204 8.37374 28.2403 6.13067 25.7766 4.55861C23.313 2.98654 20.4519 2.15085 17.5298 2.14978ZM31.1852 18.0298C28.6276 20.2547 25.6252 21.2864 22.2892 21.3949C21.1042 21.4307 19.9182 21.387 18.7391 21.2642C18.6786 21.2523 18.6159 21.2599 18.5599 21.2859C18.504 21.3119 18.4577 21.3549 18.4277 21.4088C18.0167 21.9877 17.5348 22.5127 16.9933 22.9718C16.6899 23.2103 16.3424 23.3864 15.9707 23.49C15.599 23.5936 15.2106 23.6226 14.8276 23.5753C13.855 23.5011 12.8996 23.2779 11.9948 22.9134C11.2248 22.6353 10.4742 22.2821 9.72077 21.9539C9.6495 21.9368 9.58337 21.9028 9.52792 21.8548C9.47248 21.8068 9.42933 21.7463 9.40211 21.6782C9.37488 21.6101 9.36437 21.5364 9.37144 21.4635C9.37852 21.3905 9.40298 21.3202 9.44277 21.2586C9.51369 21.158 9.60948 21.0775 9.72077 21.025C10.4621 20.6412 11.2136 20.2649 11.9754 19.8959C12.0246 19.8781 12.0664 19.8444 12.0941 19.8C12.1218 19.7556 12.1339 19.7032 12.1283 19.6512C12.1283 18.2347 12.1347 16.82 12.1477 15.4072C12.1537 15.3552 12.1421 15.3026 12.115 15.2578C12.0878 15.213 12.0465 15.1785 11.9976 15.1597C11.1858 14.7537 10.3796 14.3393 9.57343 13.9277C9.25651 13.7664 9.14531 13.4911 9.29543 13.238V13.2241C9.34843 13.136 9.42697 13.0662 9.52061 13.0238C10.909 12.331 12.3819 11.8224 13.9019 11.5109C14.4876 11.3977 15.0882 11.3845 15.6783 11.472C16.1541 11.5588 16.5955 11.7787 16.9516 12.1061C17.1239 12.2563 17.2879 12.4148 17.5076 12.6289C17.7272 12.907 18.008 13.2435 18.2721 13.5912C18.2985 13.6328 18.3366 13.6657 18.3815 13.686C18.4265 13.7062 18.4763 13.7129 18.525 13.7052C19.6204 13.6579 20.7129 13.5717 21.8054 13.5884C24.1064 13.5879 26.374 14.1381 28.4191 15.1931C29.4212 15.7268 30.3548 16.3805 31.1991 17.1398C31.5605 17.443 31.5438 17.7183 31.1852 18.0298Z" fill="#F43253"/>
<path d="M17.4918 35C15.1942 35.0011 12.9189 34.5491 10.796 33.67C8.67314 32.7908 6.74431 31.5016 5.11979 29.8762C3.49528 28.2508 2.20694 26.321 1.32845 24.1972C0.449962 22.0733 -0.00145806 19.7971 3.53792e-06 17.4986C-0.00109262 15.2004 0.450597 12.9244 1.32925 10.8009C2.20791 8.67736 3.4963 6.7479 5.12078 5.12278C6.74526 3.49767 8.67397 2.20877 10.7967 1.32977C12.9194 0.450773 15.1944 -0.00109305 17.4918 3.53931e-06C19.7894 -0.00145864 22.0647 0.450138 24.1877 1.32897C26.3107 2.20781 28.2398 3.49665 29.8646 5.1218C31.4893 6.74695 32.778 8.67654 33.6568 10.8002C34.5356 12.9239 34.9874 15.2001 34.9863 17.4986C34.9878 19.7973 34.5363 22.0738 33.6576 24.1978C32.7789 26.3219 31.4903 28.2518 29.8655 29.8772C28.2407 31.5027 26.3116 32.7918 24.1884 33.6708C22.0652 34.5498 19.7896 35.0015 17.4918 35ZM17.4918 1.07072C13.7038 1.07198 10.0327 2.3833 7.10056 4.78248C4.16843 7.18165 2.15557 10.5211 1.40306 14.2351C0.65055 17.9491 1.20466 21.8091 2.9715 25.1611C4.73833 28.5131 7.60924 31.151 11.0978 32.6277C15.1098 34.3242 19.6312 34.3568 23.6672 32.7183C25.6656 31.907 27.4848 30.7099 29.0208 29.1953C30.5567 27.6807 31.7795 25.8783 32.6191 23.8909C33.4588 21.9036 33.899 19.7703 33.9145 17.6128C33.93 15.4553 33.5206 13.3158 32.7097 11.3166C31.8987 9.31737 30.7021 7.49752 29.188 5.96094C27.674 4.42436 25.8723 3.20115 23.8858 2.36115C21.8627 1.50653 19.6878 1.0695 17.4918 1.07628V1.07072Z" fill="#F43253"/>
<path d="M43.9752 15.499C43.1158 15.5067 42.2813 15.7883 41.5927 16.3027L41.5788 15.6992H39.6328V24.6321H41.6761V18.5888C41.9138 18.2247 42.2369 17.9244 42.6173 17.714C42.9977 17.5036 43.4238 17.3895 43.8584 17.3818H44.6535V15.5073H43.9752V15.499Z" fill="#F43253"/>
<path d="M49.3458 15.4934H49.2068C46.5046 15.5546 44.6976 17.4152 44.6976 20.1629C44.6594 21.3834 45.0948 22.5713 45.9125 23.4779C46.7465 24.3623 47.9363 24.8323 49.3458 24.8323C50.7552 24.8323 51.959 24.3707 52.7874 23.4946C53.6065 22.5807 54.0382 21.3839 53.9912 20.1573C54.0327 18.9266 53.5906 17.7285 52.7596 16.82C51.9284 15.9523 50.7469 15.4934 49.3458 15.4934ZM51.9479 20.1657C51.9479 21.9428 50.9999 22.9468 49.3458 22.9468C48.9922 22.9645 48.6389 22.907 48.3092 22.7781C47.9795 22.6491 47.6809 22.4516 47.4331 22.1986C46.954 21.6275 46.7078 20.8965 46.7437 20.1518C46.7077 19.4078 46.9539 18.6777 47.4331 18.1077C47.9535 17.6301 48.6331 17.3635 49.3393 17.3599C50.0454 17.3563 50.7276 17.616 51.2529 18.0882C51.7429 18.6655 51.9918 19.4095 51.9479 20.1657Z" fill="#F43253"/>
<path d="M60.7822 22.6019C60.3518 22.845 59.8643 22.9688 59.37 22.9607C59.0114 22.9771 58.6532 22.9188 58.3182 22.7895C57.9833 22.6603 57.6788 22.4629 57.424 22.2098C56.9287 21.6476 56.6724 20.9141 56.7095 20.1657C56.6785 19.425 56.9322 18.7005 57.4184 18.141C57.6711 17.8841 57.9749 17.6831 58.3101 17.5508C58.6453 17.4186 59.0045 17.3582 59.3644 17.3735C59.8226 17.3484 60.2784 17.4535 60.6794 17.6766L61.1131 18.0048L62.3613 16.5447L61.8553 16.1776C61.0944 15.7014 60.2087 15.4631 59.3116 15.4934C58.6745 15.47 58.0396 15.5804 57.4477 15.8175C56.8559 16.0546 56.3203 16.4132 55.8755 16.8701C55.066 17.774 54.6306 18.9523 54.6579 20.1657C54.6255 21.3985 55.0742 22.5955 55.9089 23.503C56.3536 23.9474 56.8849 24.2957 57.4698 24.5263C58.0546 24.7569 58.6806 24.8649 59.3088 24.8435C60.2226 24.8523 61.121 24.6088 61.9054 24.1399L62.4419 23.7811L61.202 22.321L60.7822 22.6019Z" fill="#F43253"/>
<path d="M71.3977 15.6992H68.7511L65.468 18.9698V12.0087H63.4219V24.6321H65.468V21.7537L66.3659 20.8721L69.0959 24.6321H71.5867L67.7476 19.4148L71.3977 15.6992Z" fill="#F43253"/>
<path d="M78.5988 16.5447C77.851 15.8383 76.7946 15.4823 75.4574 15.4823C74.8486 15.4595 74.2416 15.5614 73.6736 15.7819C73.1057 16.0024 72.5888 16.3367 72.1548 16.7644C71.7359 17.2203 71.4129 17.7559 71.2051 18.3393C70.9974 18.9227 70.9091 19.5419 70.9455 20.1601C70.9456 21.3774 71.3871 22.5533 72.1881 23.4696C72.596 23.9102 73.0932 24.2587 73.6464 24.4918C74.1996 24.7248 74.7962 24.8372 75.3963 24.8212H75.5686C76.724 24.8276 77.8575 24.5065 78.8379 23.8951L79.355 23.5475L78.2791 22.1931L77.8538 22.4295C77.1823 22.7971 76.4286 22.9885 75.6632 22.9857H75.5547C74.2898 22.9857 73.4252 22.3461 73.1055 21.2364H79.5635L79.6525 20.7664C79.7179 20.3992 79.7514 20.027 79.7525 19.654C79.7525 18.3051 79.3661 17.2678 78.5988 16.5447ZM77.7648 19.4704V19.5149H73.0194C73.0677 18.97 73.2866 18.4542 73.6449 18.0409C73.8811 17.7973 74.167 17.6075 74.4831 17.4841C74.7992 17.3608 75.1381 17.3069 75.4769 17.3262C76.2553 17.3262 76.8363 17.4931 77.2005 17.8212C77.5647 18.1494 77.7648 18.7028 77.7648 19.4676V19.4704Z" fill="#F43253"/>
<path d="M84.2317 22.2682C83.9025 21.8639 83.7369 21.3509 83.7675 20.8303V17.5403H86.1277V15.6992H83.7591V13.4299H81.7297V15.6992H80.1562V17.5403H81.7297V20.8303C81.7297 22.0123 82.0911 22.9579 82.8028 23.642C83.4672 24.2872 84.3957 24.6516 85.5661 24.7239L86.1777 24.7517V22.944L85.6634 22.8884C85.1263 22.8644 84.6167 22.6437 84.2317 22.2682Z" fill="#F43253"/>
<path d="M101.077 15.8911C99.9849 15.8911 99.2204 16.2249 98.1278 17.201C97.8232 16.7853 97.4228 16.4491 96.9606 16.2211C96.4984 15.9931 95.9881 15.8799 95.4729 15.8911C94.4666 15.8911 93.7855 16.2861 92.9237 17.0648L92.8987 16.1025H91.7422V24.2288H92.9821V18.2245C93.8522 17.3568 94.3915 16.9702 95.2283 16.9702C95.515 16.9546 95.8017 16.9988 96.0703 17.1003C96.3389 17.2017 96.5834 17.358 96.7882 17.5592C96.993 17.7605 97.1537 18.0022 97.2599 18.269C97.3661 18.5358 97.4155 18.8219 97.405 19.1089V24.2288H98.6421V19.031C98.6439 18.7268 98.596 18.4243 98.5004 18.1355C99.5456 17.1399 100.085 16.9702 100.877 16.9702C101.164 16.9546 101.451 16.9988 101.719 17.1003C101.988 17.2017 102.232 17.358 102.437 17.5592C102.642 17.7605 102.803 18.0022 102.909 18.269C103.015 18.5358 103.064 18.8219 103.054 19.1089V24.2288H104.291V18.9448C104.302 16.9424 102.681 15.8911 101.077 15.8911Z" fill="#F43253"/>
<path d="M111.7 16.6504C110.976 16.1437 110.111 15.8798 109.228 15.8967C108.187 15.9108 107.165 16.1821 106.254 16.6865L106.115 16.7644L106.498 17.6432L106.665 17.5514C107.405 17.1385 108.234 16.9132 109.081 16.8951C110.332 16.8951 111.605 17.5959 111.614 18.9336V19.5205C110.804 19.1452 109.921 18.9552 109.028 18.9642C108.181 18.9386 107.345 19.1588 106.621 19.5983C106.27 19.8241 105.984 20.1365 105.789 20.5052C105.594 20.874 105.498 21.2867 105.509 21.7036C105.509 23.5753 107.177 24.4291 108.722 24.4291C109.812 24.4525 110.869 24.0539 111.672 23.3166L111.7 24.24H112.867V18.9559C112.875 18.5055 112.773 18.06 112.569 17.6582C112.366 17.2564 112.067 16.9104 111.7 16.6504ZM111.616 20.5216V22.1903C111.292 22.582 110.883 22.8939 110.419 23.1017C109.955 23.3096 109.45 23.4079 108.942 23.3889C107.83 23.3889 106.718 22.8494 106.718 21.6452C106.709 21.3795 106.77 21.1162 106.897 20.8824C107.024 20.6487 107.21 20.4531 107.438 20.3158C107.968 20.0109 108.573 19.8624 109.184 19.8876C110.036 19.8827 110.875 20.1014 111.616 20.5216Z" fill="#F43253"/>
<path d="M116.82 22.5268C116.426 22.048 116.227 21.4382 116.264 20.8192V17.1371H118.621V16.1025H116.264V13.8331H115.027V16.1025H113.453V17.1371H115.027V20.8303C115.027 21.8983 115.346 22.7465 115.975 23.3528C116.603 23.9591 117.415 24.2567 118.477 24.3234H118.66V23.3055L118.504 23.2888C117.867 23.2539 117.267 22.9821 116.82 22.5268Z" fill="#F43253"/>
<path d="M122.998 22.5268C122.598 22.0506 122.394 21.4401 122.428 20.8192V17.1371H124.785V16.1025H122.428V13.8331H121.191V16.1025H119.617V17.1371H121.191V20.8303C121.191 21.8983 121.51 22.7465 122.139 23.3528C122.767 23.9591 123.579 24.2567 124.641 24.3234H124.824V23.3055L124.668 23.2888C124.036 23.2518 123.44 22.9801 122.998 22.5268Z" fill="#F43253"/>
<path d="M129.651 15.8856C128.383 15.8856 127.327 16.3111 126.593 17.1204C125.877 17.9609 125.502 19.0397 125.542 20.1434C125.503 21.2686 125.902 22.365 126.654 23.2026C127.402 23.9952 128.475 24.4152 129.754 24.4152C130.835 24.4397 131.9 24.1416 132.812 23.5586L132.967 23.4529L132.378 22.7076L132.247 22.7799C131.513 23.1716 130.692 23.3715 129.859 23.3612H129.748C128.116 23.3473 127.029 22.3961 126.807 20.8053H133.423L133.451 20.6635C133.513 20.3174 133.544 19.9666 133.546 19.615C133.546 18.4108 133.198 17.4708 132.517 16.8339C131.836 16.1971 130.882 15.8856 129.651 15.8856ZM126.782 19.9182C126.763 19.1328 127.033 18.3678 127.541 17.7684C127.817 17.4858 128.149 17.2653 128.517 17.1214C128.885 16.9776 129.279 16.9137 129.673 16.9341C131.483 16.9341 132.364 17.7684 132.364 19.4815C132.364 19.6262 132.364 19.7819 132.342 19.9293L126.782 19.9182Z" fill="#F43253"/>
<path d="M135.959 17.1843L135.942 16.1025H134.797V24.2288H136.034V18.4636C136.305 18.0179 136.684 17.648 137.136 17.3884C137.588 17.1287 138.098 16.9877 138.619 16.9785H139V15.905H138.722C138.198 15.9115 137.68 16.0289 137.204 16.2493C136.728 16.4698 136.303 16.7884 135.959 17.1843Z" fill="#F43253"/>
</g>
<defs>
<clipPath id="clip0_193_25419">
<rect width="139" height="35" fill="white"/>
</clipPath>
</defs>
</svg>
